HIERARCHY
ROOT Root
{
	OFFSET 0.00000 0.00000 0.00000
	CHANNELS 6 Xposition Yposition Zposition Zrotation Xrotation Yrotation
	JOINT Hips
	{
		OFFSET 0 0 0	
		CHANNELS 3 Zrotation Xrotation Yrotation
		JOINT Spine
		{
			OFFSET 0 4 0	
			CHANNELS 3 Zrotation Xrotation Yrotation
			JOINT Spine1
			{
				OFFSET 0 19.4 0	
				CHANNELS 3 Zrotation Xrotation Yrotation
				JOINT Spine2
				{
					OFFSET 0 16.6 0	
					CHANNELS 3 Zrotation Xrotation Yrotation
					JOINT LeftCollar
					{
						OFFSET 0 10 0	
						CHANNELS 3 Zrotation Xrotation Yrotation
						JOINT LeftArm
						{
							OFFSET 15.6 -2 3	
							CHANNELS 3 Zrotation Xrotation Yrotation
							JOINT LeftForeArm
							{
								OFFSET 3.5 -27 -1	
								CHANNELS 3 Zrotation Xrotation Yrotation
								JOINT LeftHand
								{
									OFFSET 1 -27 1	
									CHANNELS 3 Zrotation Xrotation Yrotation
									End Site
									{
										OFFSET 0 -15 0
									}
								}
							}
						}
					}
					JOINT RightCollar
					{
						OFFSET 0 10 0	
						CHANNELS 3 Zrotation Xrotation Yrotation
						JOINT RightArm
						{
							OFFSET -15.6 -2 3	
							CHANNELS 3 Zrotation Xrotation Yrotation
							JOINT RightForeArm
							{
								OFFSET -3.5 -27 -1	
								CHANNELS 3 Zrotation Xrotation Yrotation
								JOINT RightHand
								{
									OFFSET -1 -27 1	
									CHANNELS 3 Zrotation Xrotation Yrotation
									End Site
									{
										OFFSET 0 -15 0
									}
								}
							}
						}
					}
					JOINT Neck
					{
						OFFSET 0 10 0	
						CHANNELS 3 Zrotation Xrotation Yrotation
						JOINT Head
						{
							OFFSET 0 12.7 3	
							CHANNELS 3 Zrotation Xrotation Yrotation
							End Site
							{
								OFFSET 0 12.7 3
							}
						}
					}
				}
			}
		}
	}
	JOINT LeftHip
	{
		OFFSET 0 0 0	
		CHANNELS 3 Zrotation Xrotation Yrotation
		JOINT LeftUpLeg
		{
			OFFSET 8.8 -6 0	
			CHANNELS 3 Zrotation Xrotation Yrotation
			JOINT LeftLeg
			{
				OFFSET 0 -39 2	
				CHANNELS 3 Zrotation Xrotation Yrotation
				JOINT LeftFoot
				{
					OFFSET 0 -43 -2	
					CHANNELS 3 Zrotation Xrotation Yrotation
					JOINT LeftFootFront
					{
						OFFSET 0 -7 8.5	
						CHANNELS 3 Zrotation Xrotation Yrotation
						End Site
						{
							OFFSET 0 -0.5 9
						}
					}
				}
				JOINT LeftHeel
				{
					OFFSET 0 -43 -2	
					CHANNELS 3 Zrotation Xrotation Yrotation
					End Site
					{
						OFFSET 0 -7.5 -5
					}
				}
			}
		}
	}
	JOINT RightHip
	{
		OFFSET 0 0 0	
		CHANNELS 3 Zrotation Xrotation Yrotation
		JOINT RightUpLeg
		{
			OFFSET -8.8 -6 0	
			CHANNELS 3 Zrotation Xrotation Yrotation
			JOINT RightLeg
			{
				OFFSET 0 -39 2	
				CHANNELS 3 Zrotation Xrotation Yrotation
				JOINT RightFoot
				{
					OFFSET 0 -43 -2	
					CHANNELS 3 Zrotation Xrotation Yrotation
					JOINT RightFootFront
					{
						OFFSET 0 -7 8.5	
						CHANNELS 3 Zrotation Xrotation Yrotation
						End Site
						{
							OFFSET 0 -0.5 9
						}
					}
				}
				JOINT RightHeel
				{
					OFFSET 0 -43 -2	
					CHANNELS 3 Zrotation Xrotation Yrotation
					End Site
					{
						OFFSET 0 -7.5 -5
					}
				}
			}
		}
	}
}
MOTION
Frames: 22
Frame Time: 0.05
0 96.377 0 -0 0 -0 -1.9 5.8367 0.21075 -0.16904 -1.5273 -0.61429 -0.16904 -1.5273 -0.61429 -0.14089 -1.2831 -0.51568 -0 0 -0 2.3469 -5.4735 1.498 -3.0305 7.9589 0.62012 -2.1393 0.64949 6.2556 -0 0 -0 4.1169 1.5204 12.141 -1.537 1.166 -3.4378 0.25676 -0.56117 -2.0699 -1.0623 10.506 3.7537 -1.1038 9.2319 3.2074 -1.9 5.8367 0.21075 -0.5532 -9.8632 -2.8741 -1.455 8.388 -0.35721 -0 0 -0 0 0 -6.6701e-08 -0 0 -0 -1.9 5.8367 0.21075 -0.31264 -8.5054 -0.72457 -0.097425 0.79979 2.0918 -0 0 -0 -0 0 1.0005e-08 -0 0 -0 
0 96.378 0 -0 0 -0 -1.9188 5.8659 0.23624 -0.15667 -1.517 -0.61446 -0.15667 -1.517 -0.61446 -0.1305 -1.2744 -0.51585 -0 0 -0 2.2885 -5.5362 1.3099 -2.9947 7.9879 0.74381 -2.1591 0.61291 6.293 -0 0 -0 4.1606 1.5663 12.225 -1.5903 1.1017 -3.5336 0.23244 -0.58656 -2.081 -1.053 10.511 3.7456 -1.084 9.2457 3.1995 -1.9188 5.8659 0.23624 -0.54765 -9.8626 -2.8735 -1.4256 8.388 -0.40388 -0 0 -0 -0 0 4.0021e-08 -0 0 -0 -1.9188 5.8659 0.23624 -0.32862 -8.5145 -0.77117 -0.072715 0.80568 2.123 -0 0 -0 -0 0 2.3345e-08 -0 0 -0 
0 96.38 0 -0 0 -0 -1.929 5.8623 0.27186 -0.14356 -1.4563 -0.62204 -0.14356 -1.4563 -0.62204 -0.11953 -1.2234 -0.52224 -0 0 -0 2.2245 -5.7101 1.1355 -2.9587 8.0183 0.87261 -2.172 0.58968 6.3652 -0 0 -0 4.1574 1.4445 12.285 -1.588 1.093 -3.5643 0.22272 -0.58904 -2.0573 -1.0411 10.437 3.7474 -1.061 9.2228 3.196 -1.929 5.8623 0.27186 -0.55412 -9.8289 -2.8849 -1.396 8.3872 -0.44784 -0 0 -0 -1.4042e-10 -0.092787 -1.7342e-07 -0 0 -0 -1.929 5.8623 0.27186 -0.35005 -8.4791 -0.8194 -0.051017 0.80109 2.1453 -0 0 -0 0 0 -3.0015e-08 -0 0 -0 
0 96.383 0 -0 0 -0 -1.9294 5.8876 0.30862 -0.14291 -1.4384 -0.61191 -0.14291 -1.4384 -0.61191 -0.11901 -1.2083 -0.51374 -0 0 -0 2.1978 -5.8073 0.94817 -2.937 8.0477 0.99831 -2.1841 0.58737 6.4004 -0 0 -0 4.1894 1.4178 12.294 -1.5943 1.0643 -3.5861 0.25393 -0.53667 -1.9899 -0.98605 10.459 3.7204 -1.0069 9.2595 3.179 -1.9294 5.8876 0.30862 -0.57755 -9.8421 -2.9092 -1.3819 8.39 -0.43005 -0 0 -0 -8.3766e-11 -0.10279 -9.3382e-08 -0 0 -0 -1.9294 5.8876 0.30862 -0.3592 -8.47 -0.85176 -0.036438 0.81304 2.1418 -0 0 -0 0 0 -4.0021e-08 -0 0 -0 
0 96.387 0 -0 0 -0 -1.9553 5.9281 0.36003 -0.12083 -1.3977 -0.57506 -0.12083 -1.3977 -0.57506 -0.10055 -1.1741 -0.48283 -0 0 -0 2.1185 -5.995 0.73573 -2.9094 8.0707 1.1077 -2.183 0.6248 6.3828 -0 0 -0 4.1818 1.3096 12.229 -1.5937 1.0272 -3.6248 0.2632 -0.51441 -1.9719 -0.98594 10.396 3.649 -0.99472 9.2296 3.1395 -1.9553 5.9281 0.36003 -0.58048 -9.895 -2.9411 -1.3536 8.4189 -0.43084 -0 0 -0 -2.1336e-07 -0.12033 7.9817e-08 -0 0 -0 -1.9553 5.9281 0.36003 -0.34702 -8.4748 -0.89752 -0.027832 0.82169 2.1422 -0 0 -0 -0 0 3.3351e-08 -0 0 -0 
0 96.391 0 -0 0 -0 -1.975 6.019 0.41304 -0.11478 -1.4077 -0.57082 -0.11478 -1.4077 -0.57082 -0.095466 -1.1826 -0.47928 -0 0 -0 2.0854 -6.0514 0.65933 -2.8752 8.0846 1.1373 -2.1714 0.65118 6.3829 -0 0 -0 4.2095 1.3081 12.248 -1.6025 0.99701 -3.6716 0.28771 -0.50593 -1.9501 -0.97153 10.394 3.6407 -0.97592 9.2188 3.135 -1.975 6.019 0.41304 -0.58745 -9.997 -3.0148 -1.3305 8.4584 -0.40821 -0 0 -0 -2.6081e-10 -0.14935 -2.001e-07 -0 0 -0 -1.975 6.019 0.41304 -0.35377 -8.5429 -0.95104 -0.0057874 0.82218 2.1422 -0 0 -0 0 0 -6.6701e-09 -0 0 -0 
0 96.397 0 -0 0 -0 -2.0349 6.0753 0.46232 -0.093102 -1.4141 -0.5674 -0.093102 -1.4141 -0.5674 -0.077262 -1.1879 -0.47645 -0 0 -0 2.0705 -6.0754 0.63851 -2.8451 8.1052 1.1293 -2.1799 0.66284 6.3883 -0 0 -0 4.238 1.3276 12.252 -1.6181 0.97776 -3.6823 0.2658 -0.53245 -1.9992 -0.96147 10.411 3.6262 -0.94804 9.2307 3.1235 -2.0349 6.0753 0.46232 -0.55511 -10.042 -3.0696 -1.3042 8.4908 -0.37128 -0 0 -0 1.5795e-10 -0.19383 9.3382e-08 -0 0 -0 -2.0349 6.0753 0.46232 -0.31501 -8.5795 -0.9976 0.0048153 0.81239 2.1437 -0 0 -0 -0 0 3.3351e-08 -0 0 -0 
0 96.403 0 -0 0 -0 -2.0856 6.162 0.4924 -0.074326 -1.4432 -0.56036 -0.074326 -1.4432 -0.56036 -0.061482 -1.2123 -0.47056 -0 0 -0 2.0599 -6.0664 0.648 -2.8159 8.1865 1.1275 -2.2005 0.62394 6.387 -0 0 -0 4.2364 1.3819 12.238 -1.6148 0.94 -3.672 0.30105 -0.52797 -1.9844 -0.95797 10.464 3.6094 -0.92933 9.2592 3.1123 -2.0856 6.162 0.4924 -0.50487 -10.105 -3.0672 -1.3089 8.507 -0.35757 -0 0 -0 -2.754e-11 -0.23656 -1.334e-08 -0 0 -0 -2.0856 6.162 0.4924 -0.27172 -8.6469 -1.0242 0.0047035 0.79221 2.1371 -0 0 -0 0 0 -6.6701e-09 -0 0 -0 
0 96.409 0 -0 0 -0 -2.0741 6.2596 0.51775 -0.093149 -1.4784 -0.54818 -0.093148 -1.4784 -0.54818 -0.077292 -1.2419 -0.46029 -0 0 -0 2.0913 -6.0473 0.63471 -2.8034 8.2305 1.1076 -2.2181 0.63363 6.395 -0 0 -0 4.289 1.4403 12.192 -1.6186 0.9123 -3.6476 0.32364 -0.51491 -1.972 -0.92082 10.522 3.5788 -0.90944 9.2875 3.0924 -2.0741 6.2596 0.51775 -0.52013 -10.174 -3.0736 -1.3091 8.5221 -0.35165 -0 0 -0 -2.138e-07 -0.28046 -1.4727e-07 -0 0 -0 -2.0741 6.2596 0.51775 -0.28563 -8.7176 -1.0591 -0.0084475 0.76708 2.1161 -0 0 -0 -0 0 3.3351e-08 -0 0 -0 
0 96.416 0 -0 0 -0 -2.1092 6.2966 0.55144 -0.082157 -1.4297 -0.56359 -0.082157 -1.4297 -0.56359 -0.068064 -1.201 -0.47326 -0 0 -0 2.0973 -6.2036 0.67014 -2.7975 8.2638 1.0867 -2.2298 0.64155 6.4104 -0 0 -0 4.2688 1.3101 12.271 -1.5911 0.91225 -3.7005 0.34066 -0.48399 -1.939 -0.93346 10.438 3.5966 -0.91125 9.2445 3.0974 -2.1092 6.2966 0.55144 -0.49411 -10.194 -3.0852 -1.3239 8.5437 -0.3533 -0 0 -0 4.2644e-07 -0.32021 -1.5889e-07 -0 0 -0 -2.1092 6.2966 0.55144 -0.24958 -8.7256 -1.1031 -0.027183 0.74064 2.109 -0 0 -0 -0 0 3.3351e-09 -0 0 -0 
0 96.422 0 -0 0 -0 -2.1982 6.2696 0.5866 -0.048519 -1.3807 -0.58358 -0.048519 -1.3807 -0.58358 -0.03981 -1.1598 -0.49011 -0 0 -0 2.0903 -6.312 0.68097 -2.7863 8.3081 1.0776 -2.2511 0.64481 6.4328 -0 0 -0 4.2397 1.213 12.319 -1.5642 0.95537 -3.7054 0.35804 -0.48434 -1.939 -0.95788 10.415 3.6243 -0.90454 9.2633 3.1083 -2.1982 6.2696 0.5866 -0.41856 -10.158 -3.09 -1.3343 8.5847 -0.38934 -0 0 -0 -2.131e-07 -0.36797 1.0604e-07 -0 0 -0 -2.1982 6.2696 0.5866 -0.15831 -8.6786 -1.1525 -0.034888 0.74339 2.1146 -0 0 -0 0 0 -4.0021e-08 -0 0 -0 
0 96.425 0 -0 0 -0 -2.2668 6.2419 0.60657 -0.031058 -1.3588 -0.57167 -0.031057 -1.3588 -0.57167 -0.025177 -1.1414 -0.48014 -0 0 -0 2.0998 -6.3223 0.58475 -2.7959 8.2869 1.124 -2.2297 0.64687 6.3852 -0 0 -0 4.2804 1.1593 12.275 -1.5951 1.0321 -3.7017 0.40344 -0.4871 -1.9581 -0.95378 10.446 3.5892 -0.88742 9.3127 3.0835 -2.2668 6.2419 0.60657 -0.35335 -10.129 -3.0987 -1.3533 8.5914 -0.40783 -0 0 -0 -4.2786e-07 -0.37587 -2.9489e-07 -0 0 -0 -2.2668 6.2419 0.60657 -0.08642 -8.626 -1.1931 -0.025554 0.72499 2.147 -0 0 -0 0 0 -4.0021e-08 -0 0 -0 
0 96.426 0 -0 0 -0 -2.2761 6.2778 0.6091 -0.032915 -1.3778 -0.56231 -0.032915 -1.3778 -0.56231 -0.026738 -1.1574 -0.47227 -0 0 -0 2.1137 -6.2833 0.47597 -2.8284 8.2408 1.2204 -2.222 0.63493 6.3716 -0 0 -0 4.2972 1.1868 12.268 -1.6181 1.0363 -3.7251 0.44065 -0.47158 -1.9654 -0.95774 10.487 3.5669 -0.89397 9.3377 3.0688 -2.2761 6.2778 0.6091 -0.35226 -10.152 -3.1035 -1.3843 8.5572 -0.35757 -0 0 -0 -2.4949e-10 -0.35718 -8.0042e-08 -0 0 -0 -2.2761 6.2778 0.6091 -0.070926 -8.6367 -1.2113 -0.013537 0.71684 2.1723 -0 0 -0 -0 0 6.6701e-09 -0 0 -0 
0 96.425 0 -0 0 -0 -2.2411 6.2882 0.63066 -0.058021 -1.3654 -0.558 -0.058021 -1.3654 -0.558 -0.047842 -1.147 -0.46861 -0 0 -0 2.1515 -6.3324 0.3632 -2.8537 8.2085 1.262 -2.221 0.63237 6.377 -0 0 -0 4.3357 1.1477 12.267 -1.6316 1.0185 -3.7657 0.44988 -0.47242 -1.9413 -0.94746 10.465 3.5568 -0.90572 9.3257 3.0629 -2.2411 6.2882 0.63066 -0.39806 -10.169 -3.1587 -1.4065 8.5232 -0.34198 -0 0 -0 0 -0.3159 0 -0 0 -0 -2.2411 6.2882 0.63066 -0.12126 -8.6141 -1.2651 0.014801 0.71365 2.2031 -0 0 -0 -0 0 2.3345e-08 -0 0 -0 
0 96.422 0 -0 0 -0 -2.2063 6.306 0.65539 -0.082312 -1.3535 -0.55345 -0.082311 -1.3535 -0.55345 -0.068261 -1.137 -0.46475 -0 0 -0 2.1837 -6.3971 0.25865 -2.8479 8.1836 1.2852 -2.2311 0.62948 6.3827 -0 0 -0 4.3778 1.0876 12.263 -1.6403 1.0291 -3.7842 0.45534 -0.47758 -1.9318 -0.91951 10.442 3.5453 -0.89922 9.3125 3.056 -2.2063 6.306 0.65539 -0.42966 -10.177 -3.2057 -1.4375 8.4781 -0.36566 -0 0 -0 -4.2631e-07 -0.27695 2.3909e-07 -0 0 -0 -2.2063 6.306 0.65539 -0.16777 -8.6244 -1.2949 0.030835 0.70562 2.2135 -0 0 -0 0 0 -5.0026e-08 -0 0 -0 
0 96.42 0 -0 0 -0 -2.2253 6.298 0.70059 -0.082053 -1.3461 -0.54135 -0.082052 -1.3461 -0.54135 -0.068067 -1.1308 -0.45459 -0 0 -0 2.205 -6.4294 0.14995 -2.8959 8.1366 1.3348 -2.2231 0.63786 6.3759 -0 0 -0 4.3781 1.0579 12.249 -1.6158 1.036 -3.8166 0.46004 -0.46027 -1.951 -0.88884 10.433 3.503 -0.87042 9.3095 3.0247 -2.2253 6.298 0.70059 -0.42175 -10.168 -3.2689 -1.4647 8.4309 -0.35679 -0 0 -0 4.2662e-07 -0.23155 -1.3254e-07 -0 0 -0 -2.2253 6.298 0.70059 -0.15988 -8.6173 -1.326 0.048717 0.70341 2.2045 -0 0 -0 0 0 -5.0026e-08 -0 0 -0 
0 96.418 0 -0 0 -0 -2.2362 6.3095 0.76076 -0.079116 -1.3518 -0.54139 -0.079115 -1.3518 -0.54139 -0.065596 -1.1356 -0.45462 -0 0 -0 2.1997 -6.4224 0.10638 -2.913 8.086 1.3318 -2.2279 0.62073 6.4072 -0 0 -0 4.4065 1.0883 12.26 -1.6342 1.0116 -3.8436 0.46704 -0.43754 -1.9607 -0.87564 10.437 3.486 -0.85475 9.3082 3.0079 -2.2362 6.3095 0.76076 -0.41025 -10.169 -3.346 -1.4959 8.3658 -0.31524 -0 0 -0 -4.2693e-07 -0.17804 -2.7344e-08 -0 0 -0 -2.2362 6.3095 0.76076 -0.15708 -8.6343 -1.3817 0.06177 0.70997 2.2105 -0 0 -0 0 0 -3.3351e-08 -0 0 -0 
0 96.418 0 -0 0 -0 -2.2662 6.2712 0.82582 -0.072185 -1.3435 -0.54894 -0.072184 -1.3435 -0.54894 -0.059768 -1.1286 -0.46098 -0 0 -0 2.2107 -6.4057 0.08725 -2.9266 8.0672 1.3224 -2.2167 0.61088 6.4017 -0 0 -0 4.4396 1.1258 12.287 -1.6467 0.98605 -3.865 0.4752 -0.42685 -1.9672 -0.86991 10.457 3.4956 -0.84189 9.3354 3.0112 -2.2662 6.2712 0.82582 -0.38444 -10.129 -3.418 -1.5192 8.3405 -0.31082 -0 0 -0 7.1947e-11 -0.15451 5.3361e-08 -0 0 -0 -2.2662 6.2712 0.82582 -0.14709 -8.6147 -1.4477 0.079783 0.71517 2.2059 -0 0 -0 0 0 -5.3361e-08 -0 0 -0 
0 96.417 0 -0 0 -0 -2.3034 6.2321 0.88635 -0.061012 -1.3501 -0.56692 -0.061012 -1.3501 -0.56692 -0.050351 -1.1341 -0.4761 -0 0 -0 2.2061 -6.346 0.10591 -2.9085 8.0646 1.324 -2.219 0.61068 6.3926 -0 0 -0 4.4521 1.1935 12.334 -1.6496 0.96958 -3.8875 0.48954 -0.4063 -1.9727 -0.86827 10.518 3.5183 -0.8275 9.3906 3.0185 -2.3034 6.2321 0.88635 -0.34251 -10.099 -3.4648 -1.538 8.3401 -0.30682 -0 0 -0 -2.3472e-10 -0.14402 -1.8676e-07 -0 0 -0 -2.3034 6.2321 0.88635 -0.12531 -8.5996 -1.5096 0.10009 0.72225 2.2028 -0 0 -0 0 0 -6.6701e-09 -0 0 -0 
-0.00026319 96.413 -0.00015759 -0 0 -0 -2.3247 6.157 0.94897 -0.048878 -1.3614 -0.59719 -0.048878 -1.3614 -0.59719 -0.040102 -1.1436 -0.50154 -0 0 -0 2.2029 -6.2294 0.14415 -2.9328 8.0734 1.3739 -2.199 0.60538 6.3766 -0 0 -0 4.4191 1.3027 12.377 -1.645 0.95188 -3.8778 0.51575 -0.38289 -1.9536 -0.88178 10.602 3.5508 -0.8252 9.4659 3.0246 -2.3247 6.157 0.94897 -0.32803 -10.025 -3.5003 -1.5296 8.3404 -0.28442 -0 0 -0 -6.8936e-11 -0.14804 -5.3361e-08 -0 0 -0 -2.3247 6.157 0.94897 -0.11543 -8.5464 -1.5789 0.11276 0.7305 2.1804 -0 0 -0 0 0 -3.3351e-08 -0 0 -0 
-0.0016557 96.404 -0.001338 -0 0 -0 -2.2901 6.0716 1.0165 -0.080046 -1.3821 -0.57315 -0.080045 -1.3821 -0.57315 -0.066307 -1.161 -0.4813 -0 0 -0 2.2497 -6.1112 0.021176 -2.9754 8.1296 1.4238 -2.1734 0.60827 6.3528 -0 0 -0 4.4523 1.4152 12.226 -1.6445 0.96574 -3.8375 0.54484 -0.37708 -1.9458 -0.82104 10.736 3.4828 -0.79342 9.5815 2.9779 -2.2901 6.0716 1.0165 -0.36241 -9.9454 -3.5404 -1.5379 8.3579 -0.26975 -0 0 -0 -2.5994e-10 -0.15949 -1.8676e-07 -0 0 -0 -2.2901 6.0716 1.0165 -0.16853 -8.487 -1.6682 0.12651 0.74473 2.1579 -0 0 -0 -0 0 -0 -0 0 -0 
-0.0067597 96.39 -0.0050549 -0 0 -0 -2.1969 5.915 1.1032 -0.10631 -1.3305 -0.61113 -0.10631 -1.3305 -0.61113 -0.088345 -1.1177 -0.51316 -0 0 -0 2.245 -6.0879 0.060405 -2.9753 8.1368 1.4153 -2.0994 0.57595 6.222 -0 0 -0 4.4759 1.3693 12.322 -1.6765 0.9999 -3.8799 0.5531 -0.35547 -1.9362 -0.78603 10.802 3.5874 -0.77402 9.6909 3.0514 -2.1969 5.915 1.1032 -0.46422 -9.7914 -3.6061 -1.5421 8.372 -0.28304 -0 0 -0 -4.2695e-07 -0.17017 -4.0655e-08 -0 0 -0 -2.1969 5.915 1.1032 -0.29336 -8.36 -1.8083 0.15227 0.7623 2.0883 -0 0 -0 0 0 -3.3351e-09 -0 0 -0 
